<svg xmlns="http://www.w3.org/2000/svg" width="460" height="270" viewBox="0 0 460 270" role="img" aria-label="Most used languages for hritvikgupta">
  <title>Most used languages — JavaScript, Python, TypeScript, Jupyter Notebook</title>
  <defs><style>.mono{font-family:ui-monospace, SFMono-Regular, "SF Mono", Menlo, Consolas, monospace}.sans{font-family:-apple-system, BlinkMacSystemFont, "Segoe UI", Inter, Helvetica, Arial, sans-serif}</style></defs>
  <rect x="0.5" y="0.5" width="459" height="269" rx="13" fill="#FFFFFF" stroke="#E3E6EA"/><text class="mono" x="30" y="38" font-size="11" letter-spacing="2.4" fill="#E14D2A">MOST USED LANGUAGES</text><text class="mono" x="430" y="38" font-size="10" letter-spacing="1.4" fill="#8B95A1" text-anchor="end">REPO-WEIGHTED</text><line x1="30" y1="56.5" x2="430" y2="56.5" stroke="#EDF0F3"/>
  <rect x="30.00" y="76" width="97.36" height="10" rx="3" fill="#f1e05a"/><rect x="128.86" y="76" width="79.88" height="10" rx="3" fill="#3572A5"/><rect x="210.24" y="76" width="65.00" height="10" rx="3" fill="#3178c6"/><rect x="276.74" y="76" width="49.97" height="10" rx="3" fill="#DA5B0B"/><rect x="328.22" y="76" width="41.92" height="10" rx="3" fill="#b07219"/><rect x="371.63" y="76" width="21.88" height="10" rx="3" fill="#e34c26"/><rect x="395.01" y="76" width="21.62" height="10" rx="3" fill="#A97BFF"/><rect x="418.13" y="76" width="10.37" height="10" rx="3" fill="#663399"/>
  <circle cx="35" cy="120" r="5" fill="#f1e05a"/><text class="sans" x="48" y="124" font-size="12.5" fill="#525C68">JavaScript</text><text class="mono" x="216" y="124" font-size="11.5" fill="#8B95A1" text-anchor="end">24.7%</text><circle cx="243" cy="120" r="5" fill="#3572A5"/><text class="sans" x="256" y="124" font-size="12.5" fill="#525C68">Python</text><text class="mono" x="424" y="124" font-size="11.5" fill="#8B95A1" text-anchor="end">20.3%</text><circle cx="35" cy="147" r="5" fill="#3178c6"/><text class="sans" x="48" y="151" font-size="12.5" fill="#525C68">TypeScript</text><text class="mono" x="216" y="151" font-size="11.5" fill="#8B95A1" text-anchor="end">16.6%</text><circle cx="243" cy="147" r="5" fill="#DA5B0B"/><text class="sans" x="256" y="151" font-size="12.5" fill="#525C68">Jupyter Notebook</text><text class="mono" x="424" y="151" font-size="11.5" fill="#8B95A1" text-anchor="end">12.9%</text><circle cx="35" cy="174" r="5" fill="#b07219"/><text class="sans" x="48" y="178" font-size="12.5" fill="#525C68">Java</text><text class="mono" x="216" y="178" font-size="11.5" fill="#8B95A1" text-anchor="end">10.9%</text><circle cx="243" cy="174" r="5" fill="#e34c26"/><text class="sans" x="256" y="178" font-size="12.5" fill="#525C68">HTML</text><text class="mono" x="424" y="178" font-size="11.5" fill="#8B95A1" text-anchor="end">5.8%</text><circle cx="35" cy="201" r="5" fill="#A97BFF"/><text class="sans" x="48" y="205" font-size="12.5" fill="#525C68">Kotlin</text><text class="mono" x="216" y="205" font-size="11.5" fill="#8B95A1" text-anchor="end">5.8%</text><circle cx="243" cy="201" r="5" fill="#663399"/><text class="sans" x="256" y="205" font-size="12.5" fill="#525C68">CSS</text><text class="mono" x="424" y="205" font-size="11.5" fill="#8B95A1" text-anchor="end">3.0%</text>
  <line x1="30" y1="240.5" x2="430" y2="240.5" stroke="#EDF0F3"/>
  <text class="mono" x="30" y="258" font-size="9" letter-spacing="1.5" fill="#8B95A1">ACROSS 159 PUBLIC REPOSITORIES</text>
</svg>
